:SAMPLES-PER-SECOND 30
:FULLY-SPECIFIED
:DEGREES
213
root  -3.74073 38.0616 14.4707 179.142 20.6304 178.72
RightUpLeg  -23.5433 20.6119 -12.86
RightLeg  29.146 5.77309 3.25268
RightFoot  -7.81844 -0.352255 9.69942
RightToes  -5.8209e-011 0 -3.6325e-017
Spine  36.1019 2.10759 -14.7209
Spine1  12.4272 -3.77259 3.37791
HEad  3.10545 30.0589 -12.6847
LeftShoulder1  5.12556 -15.7001 -20.2209
LeftArm  49.2112 -63.0505 -121.896
LeftForeArm  83.9099 5.2945 -6.94251
LeftHand  -0.246645 0.021 5.37786
RightShoulder  9.03335 16.7659 38.4686
RightArm  -33.6293 25.8984 44.8691
RightForeArm  30.7061 66.5665 23.4834
RightHand  -0.24729 -0.0210522 -5.37781
LeftUpLeg  -15.1686 29.1538 5.6156
LeftLeg  34.7543 -1.56973 -0.787723
LeftFoot  -15.0008 -0.133494 -6.98333
LeftToes  -7.45818e-011 -3.37383e-011 1.08613e-011
214
root  -3.83643 38.0615 14.468 178.901 19.0772 178.636
RightUpLeg  -22.847 19.9122 -13.059
RightLeg  29.1431 5.19168 2.90321
RightFoot  -8.05548 -0.343684 10.0432
RightToes  -5.8209e-011 0 -3.6325e-017
Spine  36.2965 2.09466 -13.4263
Spine1  12.8446 -3.39094 3.3745
HEad  3.41695 27.3717 -12.5412
LeftShoulder1  5.27352 -15.7792 -20.9232
LeftArm  44.6208 -62.7235 -117.758
LeftForeArm  84.6472 5.15796 -6.30004
LeftHand  -0.246645 0.021 5.37786
RightShoulder  9.14249 16.869 38.7651
RightArm  -32.7213 25.5389 45.5924
RightForeArm  27.7908 64.162 20.9525
RightHand  -0.24729 -0.0210522 -5.37781
LeftUpLeg  -15.304 28.1527 5.21573
LeftLeg  34.751 -1.89858 -1.03311
LeftFoot  -14.8233 -0.112784 -6.62416
LeftToes  -7.45818e-011 -3.37383e-011 1.08613e-011
215
root  -3.93376 38.0618 14.4596 178.648 17.6149 178.469
RightUpLeg  -22.1949 19.2774 -13.3538
RightLeg  29.18 4.64014 2.57556
RightFoot  -8.29626 -0.332044 10.3372
RightToes  -5.8209e-011 0 -3.6325e-017
Spine  36.3916 1.99841 -12.146
Spine1  13.2366 -3.03079 3.19297
HEad  4.14094 24.5742 -12.1567
LeftShoulder1  5.41827 -15.873 -21.5771
LeftArm  39.8224 -62.3281 -113.334
LeftForeArm  85.3747 5.0174 -5.63486
LeftHand  -0.246645 0.021 5.37786
RightShoulder  9.23398 16.9687 38.9822
RightArm  -31.6409 25.2931 46.4441
RightForeArm  25.0127 61.4615 18.6267
RightHand  -0.24729 -0.0210522 -5.37781
LeftUpLeg  -15.3803 27.5002 4.7636
LeftLeg  34.727 -2.41083 -1.41412
LeftFoot  -14.639 -0.0887416 -6.12304
LeftToes  -7.45818e-011 -3.37383e-011 1.08613e-011
216
root  -4.02764 38.0638 14.4485 178.456 16.1029 178.349
RightUpLeg  -21.5482 18.6746 -13.6144
RightLeg  29.1977 4.01251 2.19895
RightFoot  -8.51103 -0.320115 10.58
RightToes  -5.8209e-011 0 -3.6325e-017
Spine  36.4377 1.75068 -10.7803
Spine1  13.5271 -2.74539 2.87009
HEad  5.15066 21.7768 -11.6965
LeftShoulder1  5.58158 -15.9958 -22.2783
LeftArm  34.9036 -61.8025 -108.582
LeftForeArm  85.8475 4.89468 -5.01381
LeftHand  -0.246645 0.021 5.37786
RightShoulder  9.31647 17.0505 39.1932
RightArm  -30.2662 25.1932 47.3768
RightForeArm  22.0595 58.3411 16.449
RightHand  -0.24729 -0.0210522 -5.37781
LeftUpLeg  -15.4972 26.908 4.33966
LeftLeg  34.7156 -3.00767 -1.85795
LeftFoot  -14.4628 -0.0643106 -5.53614
LeftToes  -7.45818e-011 -3.37383e-011 1.08613e-011
217
root  -4.115 38.0731 14.4358 178.295 14.4351 178.312
RightUpLeg  -20.7834 18.0032 -13.7755
RightLeg  29.1213 3.30697 1.76718
RightFoot  -8.69826 -0.310186 10.8443
RightToes  -5.8209e-011 0 -3.6325e-017
Spine  36.5342 1.40089 -9.36536
Spine1  13.6999 -2.58276 2.64071
HEad  6.1038 19.0705 -11.3985
LeftShoulder1  5.77789 -16.109 -23.1613
LeftArm  30.0874 -61.1085 -103.753
LeftForeArm  85.8597 4.79883 -4.43456
LeftHand  -0.246645 0.021 5.37786
RightShoulder  9.37668 17.105 39.3571
RightArm  -28.747 25.3162 48.3153
RightForeArm  19.1813 54.7324 14.3812
RightHand  -0.24729 -0.0210522 -5.37781
LeftUpLeg  -15.6107 26.0521 3.97346
LeftLeg  34.6599 -3.54159 -2.25009
LeftFoot  -14.2759 -0.042673 -5.0023
LeftToes  -7.45818e-011 -3.37383e-011 1.08613e-011
